<?xml version="1.0" standalone="no"?>
 <!DOCTYPE svg PUBLIC "-//W3C//DTD SVG 1.1//EN" 
 "http://www.w3.org/Graphics/SVG/1.1/DTD/svg11.dtd"> 
<svg
  xmlns:svg="http://www.w3.org/2000/svg"
  xmlns="http://www.w3.org/2000/svg"
  xmlns:xlink="http://www.w3.org/1999/xlink"
  version="1.1"
  width="27.5844mm" height="27.5844mm" viewBox="0.0000 0.0000 27.5844 27.5844">
<title>SVG Image created as AxialMotor-B_Cu.svg date 2026/01/11 14:23:08 </title>
  <desc>Image generated by PCBNEW </desc>
<g style="fill:#000000; fill-opacity:1.0000;stroke:#000000; stroke-opacity:1.0000;
stroke-linecap:round; stroke-linejoin:round;"
 transform="translate(0 0) scale(1 1)">
<path style="fill:#000000; fill-opacity:1.0000; stroke:none;fill-rule:evenodd;"
d="M 21.7509,20.9731
21.8320,20.9189
21.9277,20.8999
22.0234,20.9189
22.1045,20.9731
22.8823,21.7509
22.9365,21.8320
22.9555,21.9277
22.9365,22.0234
22.8823,22.1045
22.1045,22.8823
22.0234,22.9365
21.9277,22.9555
21.8320,22.9365
21.7509,22.8823
20.9731,22.1045
20.9189,22.0234
20.8999,21.9277
20.9189,21.8320
20.9731,21.7509
Z" /> 
<path style="fill:#000000; fill-opacity:1.0000; stroke:none;fill-rule:evenodd;"
d="M 24.2737,16.0341
24.3169,15.9466
24.3902,15.8823
24.4826,15.8509
24.5799,15.8573
25.6424,16.1420
25.7299,16.1851
25.7942,16.2585
25.8256,16.3508
25.8192,16.4482
25.5345,17.5107
25.4914,17.5982
25.4180,17.6625
25.3256,17.6939
25.2283,17.6875
24.1658,17.4028
24.0783,17.3596
24.0140,17.2863
23.9826,17.1939
23.9890,17.0966
Z" /> 
<path style="fill:#000000; fill-opacity:1.0000; stroke:none;fill-rule:evenodd;"
d="M 23.9890,10.4953
23.9826,10.3980
24.0140,10.3056
24.0783,10.2323
24.1658,10.1892
25.2283,9.9045
25.3256,9.8981
25.4180,9.9294
25.4914,9.9937
25.5345,10.0812
25.8192,11.1437
25.8256,11.2411
25.7942,11.3335
25.7299,11.4068
25.6424,11.4499
24.5799,11.7346
24.4826,11.7410
24.3902,11.7097
24.3169,11.6453
24.2737,11.5579
Z" /> 
</g>
<g style="fill:#000000; fill-opacity:1.0000; stroke:none;">
<circle cx="10.6060" cy="8.2707" r="0.1250" /> 
</g>
<g style="fill:#000000; fill-opacity:1.0000; stroke:none;">
<circle cx="8.2707" cy="16.9860" r="0.1250" /> 
</g>
<g style="fill:#000000; fill-opacity:1.0000; stroke:none;">
<circle cx="9.7847" cy="7.7928" r="0.1250" /> 
</g>
<g style="fill:#000000; fill-opacity:1.0000; stroke:none;">
<circle cx="10.2514" cy="8.4912" r="0.1250" /> 
</g>
<g style="fill:#000000; fill-opacity:1.0000; stroke:none;">
<circle cx="7.7928" cy="17.8072" r="0.1250" /> 
</g>
<g style="fill:#000000; fill-opacity:1.0000; stroke:none;">
<circle cx="8.4912" cy="17.3405" r="0.1250" /> 
</g>
<g style="fill:#000000; fill-opacity:1.0000; stroke:none;">
<circle cx="16.9860" cy="19.3212" r="0.1250" /> 
</g>
<g style="fill:#000000; fill-opacity:1.0000; stroke:none;">
<circle cx="8.0282" cy="10.4660" r="0.1250" /> 
</g>
<g style="fill:#000000; fill-opacity:1.0000; stroke:none;">
<circle cx="10.4660" cy="19.5637" r="0.1250" /> 
</g>
<g style="fill:#000000; fill-opacity:1.0000; stroke:none;">
<circle cx="7.3205" cy="10.6026" r="0.1250" /> 
</g>
<g style="fill:#000000; fill-opacity:1.0000; stroke:none;">
<circle cx="7.8228" cy="10.8503" r="0.1250" /> 
</g>
<g style="fill:#000000; fill-opacity:1.0000; stroke:none;">
<circle cx="10.6026" cy="20.2714" r="0.1250" /> 
</g>
<g style="fill:#000000; fill-opacity:1.0000; stroke:none;">
<circle cx="10.8503" cy="19.7691" r="0.1250" /> 
</g>
<g style="fill:#000000; fill-opacity:1.0000; stroke:none;">
<circle cx="19.5637" cy="17.1260" r="0.1250" /> 
</g>
<g style="fill:#000000; fill-opacity:1.0000; stroke:none;">
<circle cx="6.8560" cy="13.7960" r="0.1250" /> 
</g>
<g style="fill:#000000; fill-opacity:1.0000; stroke:none;">
<circle cx="13.7960" cy="20.7360" r="0.1250" /> 
</g>
<g style="fill:#000000; fill-opacity:1.0000; stroke:none;">
<circle cx="20.7360" cy="13.7960" r="0.1250" /> 
</g>
<g style="fill:#000000; fill-opacity:1.0000; stroke:none;">
<circle cx="21.4863" cy="9.3560" r="0.1250" /> 
</g>
<g style="fill:#000000; fill-opacity:1.0000; stroke:none;">
<circle cx="18.2360" cy="6.1057" r="0.1250" /> 
</g>
<g style="fill:#000000; fill-opacity:1.0000; stroke:none;">
<circle cx="13.7960" cy="4.9160" r="0.1250" /> 
</g>
<g style="fill:#000000; fill-opacity:1.0000; stroke:none;">
<circle cx="9.3560" cy="6.1057" r="0.1250" /> 
</g>
<g style="fill:#000000; fill-opacity:1.0000; stroke:none;">
<circle cx="6.1057" cy="9.3560" r="0.1250" /> 
</g>
<g style="fill:#000000; fill-opacity:1.0000; stroke:none;">
<circle cx="4.9160" cy="13.7960" r="0.1250" /> 
</g>
<g style="fill:#000000; fill-opacity:1.0000; stroke:none;">
<circle cx="6.1057" cy="18.2360" r="0.1250" /> 
</g>
<g style="fill:#000000; fill-opacity:1.0000; stroke:none;">
<circle cx="9.3560" cy="21.4863" r="0.1250" /> 
</g>
<g style="fill:#000000; fill-opacity:1.0000; stroke:none;">
<circle cx="13.7960" cy="22.6760" r="0.1250" /> 
</g>
<g style="fill:#000000; fill-opacity:1.0000; stroke:none;">
<circle cx="18.2360" cy="21.4863" r="0.1250" /> 
</g>
<g style="fill:#000000; fill-opacity:1.0000; stroke:none;">
<circle cx="21.4863" cy="18.2360" r="0.1250" /> 
</g>
<g style="fill:#000000; fill-opacity:1.0000; stroke:none;">
<circle cx="22.6760" cy="13.7960" r="0.1250" /> 
</g>
<g style="fill:none; 
stroke:#000000; stroke-width:0.1400; stroke-opacity:1; 
stroke-linecap:round; stroke-linejoin:round;">
<path d="M20.2912 10.0460
L19.8062 10.3260
" />
<path d="M10.0460 7.3008
L10.6060 8.2707
" />
<path d="M10.0460 7.3008
L10.6060 8.2707
" />
<path d="M7.3008 17.5460
L8.2707 16.9860
" />
<path d="M10.2514 8.4912
L9.7847 7.7928
" />
<path d="M7.3008 17.5460
L8.2707 16.9860
" />
<path d="M8.4912 17.3405
L7.7928 17.8072
" />
<path d="M17.5460 20.2912
L16.9860 19.3212
" />
<path d="M17.5460 7.3008
L17.2660 7.7857
" />
<path d="M7.3008 10.0460
L8.0282 10.4660
" />
<path d="M7.3008 10.0460
L8.0282 10.4660
" />
<path d="M10.0460 20.2912
L10.4660 19.5637
" />
<path d="M7.8228 10.8503
L7.3205 10.6026
" />
<path d="M10.0460 20.2912
L10.4660 19.5637
" />
<path d="M10.8503 19.7691
L10.6026 20.2714
" />
<path d="M20.2912 17.5460
L19.5637 17.1260
" />
<path d="M13.7960 6.2960
L13.7960 6.8560
" />
<path d="M6.2960 13.7960
L6.8560 13.7960
" />
<path d="M6.2960 13.7960
L6.8560 13.7960
" />
<path d="M13.7960 21.2960
L13.7960 20.7360
" />
<path d="M13.7960 21.2960
L13.7960 20.7360
" />
<path d="M21.2960 13.7960
L20.7360 13.7960
" />
<path d="M19.8061 10.3260 A6.9400 6.9400 0.0 0 0 13.7960 6.8560" />
<path d="M21.4863 9.3560 A8.8800 8.8800 0.0 0 0 21.0681 8.6998" />
<path d="M20.8552 8.8491
L21.0681 8.6998
" />
<path d="M21.6097 10.1560 A8.6202 8.6202 0.0 0 0 20.8552 8.8491" />
<path d="M22.2205 10.1997
L21.6097 10.1560
" />
<path d="M22.2205 10.1997 A9.1599 9.1599 0.0 0 0 21.1227 8.2983" />
<path d="M20.4668 8.7904
L21.1227 8.2983
" />
<path d="M21.4663 10.5216 A8.3399 8.3399 0.0 0 0 20.4668 8.7904" />
<path d="M22.5975 10.3833
L21.4663 10.5216
" />
<path d="M22.5975 10.3833 A9.4400 9.4400 0.0 0 0 21.1522 7.8799" />
<path d="M20.0768 8.7448
L21.1522 7.8799
" />
<path d="M21.3109 10.8822 A8.0600 8.0600 0.0 0 0 20.0768 8.7447" />
<path d="M22.9752 10.5991
L21.3109 10.8822
" />
<path d="M22.9752 10.5991 A9.7200 9.7200 0.0 0 0 21.1542 7.4450" />
<path d="M19.6856 8.7126
L21.1542 7.4450
" />
<path d="M21.1431 11.2371 A7.7799 7.7799 0.0 0 0 19.6856 8.7126" />
<path d="M23.3519 10.8490
L21.1431 11.2371
" />
<path d="M23.3519 10.8490 A9.9999 9.9999 0.0 0 0 21.1261 6.9938" />
<path d="M19.2936 8.6943
L21.1261 6.9938
" />
<path d="M20.2912 10.0460 A7.4999 7.4999 0.0 0 0 19.2935 8.6944" />
<path d="M18.2360 6.1057 A8.8800 8.8800 0.0 0 0 17.5458 5.7465" />
<path d="M17.4360 5.9822
L17.5458 5.7465
" />
<path d="M18.7429 6.7367 A8.6202 8.6202 0.0 0 0 17.4360 5.9822" />
<path d="M19.2937 6.4692
L18.7429 6.7367
" />
<path d="M19.2937 6.4692 A9.1600 9.1600 0.0 0 0 17.3922 5.3715" />
<path d="M17.0703 6.1256
L17.3922 5.3715
" />
<path d="M18.8015 7.1251 A8.3400 8.3400 0.0 0 0 17.0703 6.1256" />
<path d="M19.7120 6.4397
L18.8015 7.1251
" />
<path d="M19.7120 6.4397 A9.4401 9.4401 0.0 0 0 17.2086 4.9944" />
<path d="M16.7097 6.2811
L17.2086 4.9944
" />
<path d="M18.8472 7.5151 A8.0600 8.0600 0.0 0 0 16.7097 6.2811" />
<path d="M20.1469 6.4377
L18.8472 7.5151
" />
<path d="M20.1469 6.4378 A9.7200 9.7200 0.0 0 0 16.9929 4.6167" />
<path d="M16.3548 6.4488
L16.9929 4.6167
" />
<path d="M18.8794 7.9064 A7.7800 7.7800 0.0 0 0 16.3548 6.4488" />
<path d="M20.5981 6.4658
L18.8794 7.9064
" />
<path d="M20.5981 6.4658 A10.0000 10.0000 0.0 0 0 16.7430 4.2401" />
<path d="M16.0062 6.6290
L16.7430 4.2401
" />
<path d="M17.5460 7.3008 A7.5000 7.5000 0.0 0 0 16.0062 6.6290" />
<path d="M13.7960 4.9160 A8.8799 8.8799 0.0 0 0 13.0187 4.9500" />
<path d="M13.0414 5.2090
L13.0187 4.9500
" />
<path d="M14.5505 5.2090 A8.6198 8.6198 0.0 0 0 13.0414 5.2090" />
<path d="M14.8937 4.7020
L14.5505 5.2090
" />
<path d="M14.8937 4.7020 A9.1600 9.1600 0.0 0 0 12.6982 4.7020" />
<path d="M12.7965 5.5161
L12.6982 4.7020
" />
<path d="M14.7955 5.5161 A8.3400 8.3400 0.0 0 0 12.7965 5.5161" />
<path d="M15.2413 4.4673
L14.7955 5.5161
" />
<path d="M15.2413 4.4673 A9.4400 9.4400 0.0 0 0 12.3506 4.4673" />
<path d="M12.5619 5.8310
L12.3506 4.4673
" />
<path d="M15.0300 5.8310 A8.0600 8.0600 0.0 0 0 12.5619 5.8310" />
<path d="M15.6170 4.2481
L15.0300 5.8310
" />
<path d="M15.6170 4.2481 A9.7200 9.7200 0.0 0 0 11.9750 4.2481" />
<path d="M12.3384 6.1537
L11.9750 4.2481
" />
<path d="M15.2535 6.1537 A7.7800 7.7800 0.0 0 0 12.3384 6.1537" />
<path d="M16.0217 4.0468
L15.2535 6.1537
" />
<path d="M16.0217 4.0468 A10.0000 10.0000 0.0 0 0 11.5702 4.0468" />
<path d="M12.1266 6.4841
L11.5702 4.0468
" />
<path d="M13.7960 6.2960 A7.5000 7.5000 0.0 0 0 12.1266 6.4841" />
<path d="M9.3560 6.1057 A8.8800 8.8800 0.0 0 0 8.6998 6.5238" />
<path d="M8.8491 6.7367
L8.6998 6.5238
" />
<path d="M10.1560 5.9822 A8.6201 8.6201 0.0 0 0 8.8491 6.7367" />
<path d="M10.1997 5.3715
L10.1560 5.9822
" />
<path d="M10.1997 5.3715 A9.1600 9.1600 0.0 0 0 8.2983 6.4692" />
<path d="M8.7904 7.1251
L8.2983 6.4692
" />
<path d="M10.5216 6.1256 A8.3400 8.3400 0.0 0 0 8.7904 7.1251" />
<path d="M10.3833 4.9944
L10.5216 6.1256
" />
<path d="M10.3833 4.9944 A9.4400 9.4400 0.0 0 0 7.8799 6.4397" />
<path d="M8.7448 7.5151
L7.8799 6.4397
" />
<path d="M10.8822 6.2811 A8.0600 8.0600 0.0 0 0 8.7447 7.5151" />
<path d="M10.5991 4.6167
L10.8822 6.2811
" />
<path d="M10.5991 4.6167 A9.7200 9.7200 0.0 0 0 7.4450 6.4377" />
<path d="M8.7126 7.9064
L7.4450 6.4377
" />
<path d="M11.2371 6.4488 A7.7800 7.7800 0.0 0 0 8.7126 7.9064" />
<path d="M10.8490 4.2401
L11.2371 6.4488
" />
<path d="M10.8490 4.2401 A10.0000 10.0000 0.0 0 0 6.9938 6.4658" />
<path d="M8.6943 8.2984
L6.9938 6.4658
" />
<path d="M10.0460 7.3008 A7.5000 7.5000 0.0 0 0 8.6943 8.2984" />
<path d="M6.1057 9.3560 A8.8800 8.8800 0.0 0 0 5.7465 10.0462" />
<path d="M5.9822 10.1560
L5.7465 10.0462
" />
<path d="M6.7367 8.8491 A8.6203 8.6203 0.0 0 0 5.9822 10.1560" />
<path d="M6.4692 8.2983
L6.7367 8.8491
" />
<path d="M6.4692 8.2983 A9.1601 9.1601 0.0 0 0 5.3715 10.1997" />
<path d="M6.1256 10.5216
L5.3715 10.1997
" />
<path d="M7.1251 8.7904 A8.3400 8.3400 0.0 0 0 6.1256 10.5216" />
<path d="M6.4397 7.8799
L7.1251 8.7904
" />
<path d="M6.4397 7.8799 A9.4401 9.4401 0.0 0 0 4.9944 10.3833" />
<path d="M6.2811 10.8822
L4.9944 10.3833
" />
<path d="M7.5151 8.7448 A8.0600 8.0600 0.0 0 0 6.2811 10.8822" />
<path d="M6.4377 7.4450
L7.5151 8.7448
" />
<path d="M6.4377 7.4450 A9.7201 9.7201 0.0 0 0 4.6167 10.5991" />
<path d="M6.4488 11.2371
L4.6167 10.5991
" />
<path d="M7.9064 8.7126 A7.7800 7.7800 0.0 0 0 6.4488 11.2371" />
<path d="M6.4658 6.9938
L7.9064 8.7126
" />
<path d="M6.4658 6.9938 A10.0000 10.0000 0.0 0 0 4.2401 10.8490" />
<path d="M6.6290 11.5857
L4.2401 10.8490
" />
<path d="M7.3008 10.0460 A7.5001 7.5001 0.0 0 0 6.6290 11.5857" />
<path d="M4.9160 13.7960 A8.8799 8.8799 0.0 0 0 4.9500 14.5733" />
<path d="M5.2090 14.5505
L4.9500 14.5733
" />
<path d="M5.2090 13.0414 A8.6198 8.6198 0.0 0 0 5.2090 14.5505" />
<path d="M4.7020 12.6982
L5.2090 13.0414
" />
<path d="M4.7020 12.6982 A9.1600 9.1600 0.0 0 0 4.7020 14.8937" />
<path d="M5.5161 14.7955
L4.7020 14.8937
" />
<path d="M5.5161 12.7965 A8.3400 8.3400 0.0 0 0 5.5161 14.7955" />
<path d="M4.4673 12.3506
L5.5161 12.7965
" />
<path d="M4.4673 12.3506 A9.4400 9.4400 0.0 0 0 4.4673 15.2413" />
<path d="M5.8310 15.0300
L4.4673 15.2413
" />
<path d="M5.8310 12.5619 A8.0600 8.0600 0.0 0 0 5.8310 15.0300" />
<path d="M4.2481 11.9750
L5.8310 12.5619
" />
<path d="M4.2481 11.9750 A9.7200 9.7200 0.0 0 0 4.2481 15.6170" />
<path d="M6.1537 15.2535
L4.2481 15.6170
" />
<path d="M6.1537 12.3384 A7.7800 7.7800 0.0 0 0 6.1537 15.2535" />
<path d="M4.0468 11.5702
L6.1537 12.3384
" />
<path d="M4.0468 11.5702 A10.0000 10.0000 0.0 0 0 4.0468 16.0217" />
<path d="M6.4841 15.4653
L4.0468 16.0217
" />
<path d="M6.2960 13.7960 A7.5000 7.5000 0.0 0 0 6.4841 15.4653" />
<path d="M6.1057 18.2360 A8.8800 8.8800 0.0 0 0 6.5238 18.8921" />
<path d="M6.7367 18.7429
L6.5238 18.8921
" />
<path d="M5.9822 17.4360 A8.6202 8.6202 0.0 0 0 6.7367 18.7429" />
<path d="M5.3715 17.3922
L5.9822 17.4360
" />
<path d="M5.3714 17.3922 A9.1600 9.1600 0.0 0 0 6.4692 19.2937" />
<path d="M7.1251 18.8015
L6.4692 19.2937
" />
<path d="M6.1256 17.0703 A8.3400 8.3400 0.0 0 0 7.1251 18.8015" />
<path d="M4.9944 17.2086
L6.1256 17.0703
" />
<path d="M4.9944 17.2086 A9.4400 9.4400 0.0 0 0 6.4397 19.7120" />
<path d="M7.5151 18.8472
L6.4397 19.7120
" />
<path d="M6.2811 16.7097 A8.0600 8.0600 0.0 0 0 7.5151 18.8472" />
<path d="M4.6167 16.9929
L6.2811 16.7097
" />
<path d="M4.6167 16.9929 A9.7200 9.7200 0.0 0 0 6.4377 20.1469" />
<path d="M7.9064 18.8794
L6.4377 20.1469
" />
<path d="M6.4488 16.3548 A7.7800 7.7800 0.0 0 0 7.9064 18.8794" />
<path d="M4.2401 16.7430
L6.4488 16.3548
" />
<path d="M4.2401 16.7430 A10.0000 10.0000 0.0 0 0 6.4658 20.5981" />
<path d="M8.2984 18.8976
L6.4658 20.5981
" />
<path d="M7.3008 17.5460 A7.5000 7.5000 0.0 0 0 8.2984 18.8976" />
<path d="M9.3560 21.4863 A8.8800 8.8800 0.0 0 0 10.0462 21.8454" />
<path d="M10.1560 21.6097
L10.0462 21.8454
" />
<path d="M8.8491 20.8552 A8.6203 8.6203 0.0 0 0 10.1560 21.6097" />
<path d="M8.2983 21.1227
L8.8491 20.8552
" />
<path d="M8.2983 21.1227 A9.1600 9.1600 0.0 0 0 10.1997 22.2205" />
<path d="M10.5216 21.4663
L10.1997 22.2205
" />
<path d="M8.7904 20.4668 A8.3400 8.3400 0.0 0 0 10.5216 21.4663" />
<path d="M7.8799 21.1522
L8.7904 20.4668
" />
<path d="M7.8799 21.1522 A9.4400 9.4400 0.0 0 0 10.3833 22.5975" />
<path d="M10.8822 21.3109
L10.3833 22.5975
" />
<path d="M8.7448 20.0768 A8.0600 8.0600 0.0 0 0 10.8822 21.3109" />
<path d="M7.4450 21.1542
L8.7448 20.0768
" />
<path d="M7.4450 21.1542 A9.7200 9.7200 0.0 0 0 10.5991 22.9752" />
<path d="M11.2371 21.1431
L10.5991 22.9752
" />
<path d="M8.7126 19.6856 A7.7800 7.7800 0.0 0 0 11.2371 21.1431" />
<path d="M6.9938 21.1261
L8.7126 19.6856
" />
<path d="M6.9938 21.1261 A10.0000 10.0000 0.0 0 0 10.8490 23.3519" />
<path d="M11.5857 20.9629
L10.8490 23.3519
" />
<path d="M10.0460 20.2912 A7.5000 7.5000 0.0 0 0 11.5857 20.9629" />
<path d="M13.7960 22.6760 A8.8799 8.8799 0.0 0 0 14.5733 22.6419" />
<path d="M14.5505 22.3829
L14.5733 22.6419
" />
<path d="M13.0414 22.3829 A8.6198 8.6198 0.0 0 0 14.5505 22.3829" />
<path d="M12.6982 22.8899
L13.0414 22.3829
" />
<path d="M12.6982 22.8899 A9.1600 9.1600 0.0 0 0 14.8937 22.8899" />
<path d="M14.7955 22.0759
L14.8937 22.8899
" />
<path d="M12.7965 22.0759 A8.3400 8.3400 0.0 0 0 14.7955 22.0759" />
<path d="M12.3506 23.1247
L12.7965 22.0759
" />
<path d="M12.3506 23.1247 A9.4400 9.4400 0.0 0 0 15.2413 23.1247" />
<path d="M15.0300 21.7609
L15.2413 23.1247
" />
<path d="M12.5619 21.7609 A8.0600 8.0600 0.0 0 0 15.0300 21.7609" />
<path d="M11.9750 23.3439
L12.5619 21.7609
" />
<path d="M11.9750 23.3439 A9.7200 9.7200 0.0 0 0 15.6170 23.3439" />
<path d="M15.2535 21.4382
L15.6170 23.3439
" />
<path d="M12.3384 21.4382 A7.7800 7.7800 0.0 0 0 15.2535 21.4382" />
<path d="M11.5702 23.5451
L12.3384 21.4382
" />
<path d="M11.5702 23.5451 A10.0000 10.0000 0.0 0 0 16.0217 23.5451" />
<path d="M15.4653 21.1078
L16.0217 23.5451
" />
<path d="M13.7960 21.2960 A7.5000 7.5000 0.0 0 0 15.4653 21.1078" />
<path d="M18.2360 21.4863 A8.8800 8.8800 0.0 0 0 18.8921 21.0681" />
<path d="M18.7429 20.8552
L18.8921 21.0681
" />
<path d="M17.4360 21.6097 A8.6201 8.6201 0.0 0 0 18.7429 20.8552" />
<path d="M17.3922 22.2205
L17.4360 21.6097
" />
<path d="M17.3922 22.2205 A9.1600 9.1600 0.0 0 0 19.2937 21.1227" />
<path d="M18.8015 20.4668
L19.2937 21.1227
" />
<path d="M17.0703 21.4663 A8.3400 8.3400 0.0 0 0 18.8015 20.4668" />
<path d="M17.2086 22.5975
L17.0703 21.4663
" />
<path d="M17.2086 22.5975 A9.4400 9.4400 0.0 0 0 19.7120 21.1522" />
<path d="M18.8472 20.0768
L19.7120 21.1522
" />
<path d="M16.7097 21.3109 A8.0600 8.0600 0.0 0 0 18.8472 20.0768" />
<path d="M16.9929 22.9752
L16.7097 21.3109
" />
<path d="M16.9929 22.9752 A9.7200 9.7200 0.0 0 0 20.1469 21.1542" />
<path d="M18.8794 19.6856
L20.1469 21.1542
" />
<path d="M16.3548 21.1431 A7.7800 7.7800 0.0 0 0 18.8794 19.6856" />
<path d="M16.7430 23.3519
L16.3548 21.1431
" />
<path d="M16.7430 23.3518 A10.0000 10.0000 0.0 0 0 20.5981 21.1261" />
<path d="M18.8976 19.2936
L20.5981 21.1261
" />
<path d="M17.5460 20.2912 A7.5000 7.5000 0.0 0 0 18.8976 19.2936" />
<path d="M21.4863 18.2360 A8.8800 8.8800 0.0 0 0 21.8454 17.5458" />
<path d="M21.6097 17.4360
L21.8454 17.5458
" />
<path d="M20.8552 18.7429 A8.6203 8.6203 0.0 0 0 21.6097 17.4360" />
<path d="M21.1227 19.2937
L20.8552 18.7429
" />
<path d="M21.1227 19.2937 A9.1600 9.1600 0.0 0 0 22.2205 17.3922" />
<path d="M21.4663 17.0703
L22.2205 17.3922
" />
<path d="M20.4668 18.8015 A8.3400 8.3400 0.0 0 0 21.4663 17.0703" />
<path d="M21.1522 19.7120
L20.4668 18.8015
" />
<path d="M21.1522 19.7120 A9.4400 9.4400 0.0 0 0 22.5975 17.2086" />
<path d="M21.3109 16.7097
L22.5975 17.2086
" />
<path d="M20.0768 18.8472 A8.0600 8.0600 0.0 0 0 21.3108 16.7097" />
<path d="M21.1542 20.1469
L20.0768 18.8472
" />
<path d="M21.1542 20.1470 A9.7200 9.7200 0.0 0 0 22.9752 16.9929" />
<path d="M21.1431 16.3548
L22.9752 16.9929
" />
<path d="M19.6856 18.8794 A7.7800 7.7800 0.0 0 0 21.1431 16.3548" />
<path d="M21.1261 20.5981
L19.6856 18.8794
" />
<path d="M21.1261 20.5981 A9.9999 9.9999 0.0 0 0 23.3519 16.7430" />
<path d="M20.9629 16.0062
L23.3519 16.7430
" />
<path d="M20.2912 17.5460 A7.5000 7.5000 0.0 0 0 20.9629 16.0062" />
<path d="M22.6760 13.7960 A8.8798 8.8798 0.0 0 0 22.6419 13.0187" />
<path d="M22.3829 13.0414
L22.6419 13.0187
" />
<path d="M22.3829 14.5505 A8.6197 8.6197 0.0 0 0 22.3829 13.0414" />
<path d="M22.8899 14.8937
L22.3829 14.5505
" />
<path d="M22.8899 14.8937 A9.1599 9.1599 0.0 0 0 22.8899 12.6982" />
<path d="M22.0759 12.7965
L22.8899 12.6982
" />
<path d="M22.0759 14.7955 A8.3399 8.3399 0.0 0 0 22.0759 12.7965" />
<path d="M23.1247 15.2413
L22.0759 14.7955
" />
<path d="M23.1247 15.2413 A9.4400 9.4400 0.0 0 0 23.1247 12.3506" />
<path d="M21.7609 12.5619
L23.1247 12.3506
" />
<path d="M21.7609 15.0300 A8.0599 8.0599 0.0 0 0 21.7609 12.5619" />
<path d="M23.3439 15.6170
L21.7609 15.0300
" />
<path d="M23.3439 15.6170 A9.7200 9.7200 0.0 0 0 23.3439 11.9750" />
<path d="M21.4382 12.3384
L23.3439 11.9750
" />
<path d="M21.4382 15.2535 A7.7799 7.7799 0.0 0 0 21.4382 12.3384" />
<path d="M23.5451 16.0217
L21.4382 15.2535
" />
<path d="M23.5451 16.0217 A9.9999 9.9999 0.0 0 0 23.5451 11.5702" />
<path d="M21.1078 12.1266
L23.5451 11.5702
" />
<path d="M21.2960 13.7960 A7.4999 7.4999 0.0 0 0 21.1078 12.1266" />
<path style="fill:#000000; fill-opacity:1.0000; stroke:none;fill-rule:evenodd;"
d="M 14.1575,7.9873
14.1653,7.9878
14.5215,8.0215
14.5293,8.0225
14.8827,8.0784
14.8903,8.0799
15.2395,8.1580
15.2471,8.1599
15.5907,8.2597
15.5981,8.2621
15.9348,8.3833
15.9420,8.3862
16.2704,8.5283
16.2775,8.5316
16.5963,8.6941
16.6031,8.6978
16.9111,8.8800
16.9177,8.8842
17.2137,9.0853
17.2200,9.0899
17.5027,9.3092
17.5087,9.3141
17.7771,9.5508
17.7828,9.5561
18.0358,9.8091
18.0411,9.8148
18.2778,10.0832
18.2827,10.0892
18.5020,10.3720
18.5066,10.3783
18.7078,10.6742
18.7119,10.6808
18.8941,10.9888
18.8978,10.9956
19.0603,11.3145
19.0636,11.3215
19.2057,11.6499
19.2086,11.6572
19.3298,11.9938
19.3322,12.0012
19.4320,12.3448
19.4340,12.3524
19.5120,12.7016
19.5135,12.7093
19.5695,13.0627
19.5704,13.0704
19.6041,13.4266
19.6046,13.4344
19.6158,13.7921
19.6158,13.7999
19.6046,14.1575
19.6041,14.1653
19.5704,14.5215
19.5695,14.5293
19.5135,14.8827
19.5120,14.8903
19.4340,15.2395
19.4320,15.2471
19.3322,15.5907
19.3298,15.5981
19.2086,15.9348
19.2057,15.9420
19.0636,16.2704
19.0603,16.2775
18.8978,16.5963
18.8941,16.6031
18.7119,16.9111
18.7078,16.9177
18.5066,17.2137
18.5020,17.2200
18.2827,17.5027
18.2778,17.5087
18.0411,17.7771
18.0358,17.7828
17.7828,18.0358
17.7771,18.0411
17.5087,18.2778
17.5027,18.2827
17.2200,18.5020
17.2137,18.5066
16.9658,18.6750
16.9171,18.6933
16.9173,18.6939
16.9122,18.6952
16.9111,18.6956
16.9100,18.6957
16.7625,18.7321
16.6280,18.8026
16.5143,18.9034
16.5143,18.9034
16.4936,18.9334
16.4478,18.9735
16.2775,19.0603
16.2704,19.0636
15.9420,19.2057
15.9348,19.2086
15.5981,19.3298
15.5907,19.3322
15.2471,19.4320
15.2395,19.4340
14.8903,19.5120
14.8827,19.5135
14.5293,19.5695
14.5215,19.5704
14.1653,19.6041
14.1575,19.6046
13.7999,19.6158
13.7921,19.6158
13.4344,19.6046
13.4266,19.6041
13.0704,19.5704
13.0627,19.5695
12.7093,19.5135
12.7016,19.5120
12.3524,19.4340
12.3448,19.4320
12.0012,19.3322
11.9938,19.3298
11.6572,19.2086
11.6499,19.2057
11.3215,19.0636
11.3145,19.0603
10.9956,18.8978
10.9888,18.8941
10.6808,18.7119
10.6742,18.7078
10.3783,18.5066
10.3720,18.5020
10.0892,18.2827
10.0832,18.2778
9.8148,18.0411
9.8091,18.0358
9.5561,17.7828
9.5508,17.7771
9.3141,17.5087
9.3092,17.5027
9.1307,17.2726
9.1056,17.2116
9.1030,17.1897
9.1030,17.1897
9.0491,17.0477
9.0491,17.0477
8.9628,16.9227
8.9628,16.9227
8.9147,16.8801
8.8810,16.8312
8.8286,16.6931
8.7424,16.5681
8.6458,16.4826
8.6176,16.4461
8.5316,16.2775
8.5283,16.2704
8.3862,15.9420
8.3833,15.9348
8.2621,15.5981
8.2597,15.5907
8.1599,15.2471
8.1580,15.2395
8.0799,14.8903
8.0784,14.8827
8.0225,14.5293
8.0215,14.5215
7.9878,14.1653
7.9873,14.1575
7.9761,13.7999
7.9761,13.7960
10.7904,13.7960
10.8107,14.1449
10.8714,14.4891
10.9716,14.8239
11.1101,15.1449
11.2848,15.4476
11.4935,15.7279
11.7334,15.9821
12.0011,16.2068
12.2932,16.3989
12.6055,16.5557
12.9339,16.6753
13.2740,16.7559
13.6212,16.7965
13.6212,16.7965
13.9707,16.7965
13.9707,16.7965
14.3179,16.7559
14.6580,16.6753
14.9864,16.5557
15.2988,16.3989
15.5908,16.2068
15.8585,15.9821
16.0984,15.7279
16.3071,15.4476
16.4818,15.1449
16.6203,14.8239
16.7205,14.4891
16.7812,14.1449
16.8015,13.7960
16.7812,13.4470
16.7205,13.1028
16.6203,12.7680
16.4818,12.4471
16.3071,12.1444
16.0984,11.8640
15.8585,11.6098
15.5908,11.3851
15.5661,11.3689
15.2988,11.1930
15.2988,11.1930
14.9864,11.0362
14.6580,10.9166
14.3179,10.8360
13.9707,10.7955
13.6212,10.7955
13.2740,10.8360
12.9339,10.9166
12.6055,11.0362
12.2932,11.1930
12.2932,11.1930
12.0258,11.3689
12.0011,11.3851
11.7334,11.6098
11.4935,11.8640
11.2848,12.1444
11.1101,12.4471
10.9716,12.7680
10.8714,13.1028
10.8107,13.4470
10.7904,13.7960
7.9761,13.7960
7.9761,13.7921
7.9873,13.4344
7.9878,13.4266
8.0215,13.0704
8.0225,13.0627
8.0784,12.7093
8.0799,12.7016
8.1580,12.3524
8.1599,12.3448
8.2597,12.0012
8.2621,11.9938
8.3833,11.6572
8.3862,11.6499
8.5283,11.3215
8.5316,11.3145
8.6941,10.9956
8.6978,10.9888
8.8800,10.6808
8.8842,10.6742
9.0853,10.3783
9.0899,10.3720
9.3092,10.0892
9.3141,10.0832
9.5508,9.8148
9.5561,9.8091
9.8091,9.5561
9.8148,9.5508
10.0832,9.3141
10.0892,9.3092
10.3213,9.1292
10.3676,9.1068
10.4749,9.0803
10.4749,9.0803
10.6094,9.0097
10.7231,8.9090
10.7234,8.9086
10.7238,8.9084
10.7287,8.9040
10.7294,8.9049
10.7826,8.8715
10.7866,8.8704
10.8294,8.8599
10.9639,8.7893
11.0776,8.6885
11.0776,8.6885
11.0984,8.6585
11.1441,8.6184
11.3144,8.5316
11.3215,8.5283
11.6499,8.3862
11.6572,8.3833
11.9938,8.2621
12.0012,8.2597
12.3448,8.1599
12.3524,8.1580
12.7016,8.0799
12.7093,8.0784
13.0627,8.0225
13.0704,8.0215
13.4266,7.9878
13.4344,7.9873
13.7921,7.9761
13.7999,7.9761
Z" /> 
</g>
<g style="fill:#FFFFFF; fill-opacity:1.0000; stroke:none;">
<circle cx="10.6060" cy="8.2707" r="0.0750" /> 
</g>
<g style="fill:#FFFFFF; fill-opacity:1.0000; stroke:none;">
<circle cx="8.2707" cy="16.9860" r="0.0750" /> 
</g>
<g style="fill:#FFFFFF; fill-opacity:1.0000; stroke:none;">
<circle cx="9.7847" cy="7.7928" r="0.0750" /> 
</g>
<g style="fill:#FFFFFF; fill-opacity:1.0000; stroke:none;">
<circle cx="10.2514" cy="8.4912" r="0.0750" /> 
</g>
<g style="fill:#FFFFFF; fill-opacity:1.0000; stroke:none;">
<circle cx="7.7928" cy="17.8072" r="0.0750" /> 
</g>
<g style="fill:#FFFFFF; fill-opacity:1.0000; stroke:none;">
<circle cx="8.4912" cy="17.3405" r="0.0750" /> 
</g>
<g style="fill:#FFFFFF; fill-opacity:1.0000; stroke:none;">
<circle cx="16.9860" cy="19.3212" r="0.0750" /> 
</g>
<g style="fill:#FFFFFF; fill-opacity:1.0000; stroke:none;">
<circle cx="8.0282" cy="10.4660" r="0.0750" /> 
</g>
<g style="fill:#FFFFFF; fill-opacity:1.0000; stroke:none;">
<circle cx="10.4660" cy="19.5637" r="0.0750" /> 
</g>
<g style="fill:#FFFFFF; fill-opacity:1.0000; stroke:none;">
<circle cx="7.3205" cy="10.6026" r="0.0750" /> 
</g>
<g style="fill:#FFFFFF; fill-opacity:1.0000; stroke:none;">
<circle cx="7.8228" cy="10.8503" r="0.0750" /> 
</g>
<g style="fill:#FFFFFF; fill-opacity:1.0000; stroke:none;">
<circle cx="10.6026" cy="20.2714" r="0.0750" /> 
</g>
<g style="fill:#FFFFFF; fill-opacity:1.0000; stroke:none;">
<circle cx="10.8503" cy="19.7691" r="0.0750" /> 
</g>
<g style="fill:#FFFFFF; fill-opacity:1.0000; stroke:none;">
<circle cx="19.5637" cy="17.1260" r="0.0750" /> 
</g>
<g style="fill:#FFFFFF; fill-opacity:1.0000; stroke:none;">
<circle cx="6.8560" cy="13.7960" r="0.0750" /> 
</g>
<g style="fill:#FFFFFF; fill-opacity:1.0000; stroke:none;">
<circle cx="13.7960" cy="20.7360" r="0.0750" /> 
</g>
<g style="fill:#FFFFFF; fill-opacity:1.0000; stroke:none;">
<circle cx="20.7360" cy="13.7960" r="0.0750" /> 
</g>
<g style="fill:#FFFFFF; fill-opacity:1.0000; stroke:none;">
<circle cx="21.4863" cy="9.3560" r="0.0750" /> 
</g>
<g style="fill:#FFFFFF; fill-opacity:1.0000; stroke:none;">
<circle cx="18.2360" cy="6.1057" r="0.0750" /> 
</g>
<g style="fill:#FFFFFF; fill-opacity:1.0000; stroke:none;">
<circle cx="13.7960" cy="4.9160" r="0.0750" /> 
</g>
<g style="fill:#FFFFFF; fill-opacity:1.0000; stroke:none;">
<circle cx="9.3560" cy="6.1057" r="0.0750" /> 
</g>
<g style="fill:#FFFFFF; fill-opacity:1.0000; stroke:none;">
<circle cx="6.1057" cy="9.3560" r="0.0750" /> 
</g>
<g style="fill:#FFFFFF; fill-opacity:1.0000; stroke:none;">
<circle cx="4.9160" cy="13.7960" r="0.0750" /> 
</g>
<g style="fill:#FFFFFF; fill-opacity:1.0000; stroke:none;">
<circle cx="6.1057" cy="18.2360" r="0.0750" /> 
</g>
<g style="fill:#FFFFFF; fill-opacity:1.0000; stroke:none;">
<circle cx="9.3560" cy="21.4863" r="0.0750" /> 
</g>
<g style="fill:#FFFFFF; fill-opacity:1.0000; stroke:none;">
<circle cx="13.7960" cy="22.6760" r="0.0750" /> 
</g>
<g style="fill:#FFFFFF; fill-opacity:1.0000; stroke:none;">
<circle cx="18.2360" cy="21.4863" r="0.0750" /> 
</g>
<g style="fill:#FFFFFF; fill-opacity:1.0000; stroke:none;">
<circle cx="21.4863" cy="18.2360" r="0.0750" /> 
</g>
<g style="fill:#FFFFFF; fill-opacity:1.0000; stroke:none;">
<circle cx="22.6760" cy="13.7960" r="0.0750" /> 
</g>
<g style="fill:#FFFFFF; fill-opacity:1.0000; stroke:none;">
<circle cx="21.9277" cy="21.9277" r="0.3000" /> 
</g>
<g style="fill:#FFFFFF; fill-opacity:1.0000; stroke:none;">
<circle cx="24.9041" cy="16.7724" r="0.3000" /> 
</g>
<g style="fill:#FFFFFF; fill-opacity:1.0000; stroke:none;">
<circle cx="24.9041" cy="10.8195" r="0.3000" /> 
</g> 
</svg>
